<svg width="44" height="44" viewBox="0 0 44 44" fill="none" xmlns="http://www.w3.org/2000/svg">
<circle cx="22" cy="22" r="22" fill="#FCC26B"/>
<path d="M22.7069 16.9241L22.7078 16.923L25.0239 14.2081C25.0241 14.2078 25.0243 14.2076 25.0245 14.2074C25.0747 14.1492 25.1987 14.0512 25.3847 13.9666C25.5703 13.8823 25.7323 13.85 25.821 13.85H29.2099C29.3134 13.85 29.495 13.8837 29.7021 13.966C29.9097 14.0485 30.0599 14.1469 30.1287 14.2125C30.1288 14.2126 30.1289 14.2127 30.129 14.2128L32.7924 16.7663C32.7925 16.7663 32.7925 16.7663 32.7925 16.7663C32.86 16.8312 32.9592 16.9705 33.0418 17.1615C33.125 17.3538 33.1553 17.5149 33.1553 17.5969V22.7662C33.1553 22.8204 33.13 22.9489 33.0452 23.107C32.9612 23.2637 32.8641 23.3646 32.8071 23.4037L32.8063 23.4043L21.7375 31.017L21.7371 31.0173C21.7098 31.036 21.6275 31.0711 21.502 31.0711C21.3764 31.0711 21.2946 31.036 21.268 31.0177L21.267 31.017L10.1982 23.4043L10.1961 23.4029C10.1395 23.3642 10.0431 23.2642 9.9596 23.1079C9.87543 22.9505 9.84995 22.8215 9.84995 22.7662V17.5969C9.84995 17.5149 9.88028 17.3537 9.96345 17.1613C10.0459 16.9705 10.1448 16.8312 10.2123 16.7661C10.2125 16.766 10.2126 16.7658 10.2127 16.7657L12.8755 14.2128C12.8756 14.2127 12.8757 14.2125 12.8758 14.2124C12.9448 14.1467 13.0949 14.0484 13.3022 13.966C13.509 13.8838 13.6909 13.85 13.7953 13.85H17.1842C17.2718 13.85 17.4336 13.8821 17.6195 13.9666C17.8058 14.0514 17.93 14.1495 17.98 14.2075C17.9801 14.2077 17.9803 14.2078 17.9804 14.208L20.2965 16.923L20.2968 16.9233C20.9441 17.6814 22.0598 17.6801 22.7069 16.9241Z" stroke="#242424" stroke-width="1.7"/>
</svg>
