<svg width="91" height="25" viewBox="0 0 91 25" fill="none" xmlns="http://www.w3.org/2000/svg">
<path d="M7.31 11.94H16.55V17.28H7.31V11.94ZM7.79 24H0.71V3H17.78V8.34H7.79V24ZM20.0166 24V3H27.0966V24H20.0166ZM41.3949 24.48C39.6949 24.48 38.1249 24.22 36.6849 23.7C35.2649 23.16 34.0249 22.4 32.9649 21.42C31.9249 20.44 31.1149 19.28 30.5349 17.94C29.9549 16.6 29.6649 15.12 29.6649 13.5C29.6649 11.88 29.9549 10.4 30.5349 9.06C31.1149 7.72 31.9349 6.56 32.9949 5.58C34.0549 4.6 35.3049 3.85 36.7449 3.33C38.2049 2.79 39.8049 2.52 41.5449 2.52C43.6249 2.52 45.4749 2.87 47.0949 3.57C48.7349 4.27 50.0849 5.27 51.1449 6.57L46.6149 10.56C45.9549 9.8 45.2349 9.23 44.4549 8.85C43.6949 8.45 42.8449 8.25 41.9049 8.25C41.1249 8.25 40.4149 8.37 39.7749 8.61C39.1549 8.85 38.6249 9.2 38.1849 9.66C37.7449 10.12 37.4049 10.67 37.1649 11.31C36.9249 11.95 36.8049 12.68 36.8049 13.5C36.8049 14.28 36.9249 15 37.1649 15.66C37.4049 16.3 37.7449 16.85 38.1849 17.31C38.6249 17.77 39.1449 18.13 39.7449 18.39C40.3649 18.63 41.0549 18.75 41.8149 18.75C42.6149 18.75 43.3949 18.62 44.1549 18.36C44.9149 18.08 45.7249 17.61 46.5849 16.95L50.5449 21.81C49.2649 22.67 47.8049 23.33 46.1649 23.79C44.5249 24.25 42.9349 24.48 41.3949 24.48ZM44.3949 20.91V12.93H50.5449V21.81L44.3949 20.91Z" fill="white"/>
<path d="M56.8296 24.076L56.7536 24.038H55.9936C55.9682 24.038 55.9176 24.038 55.8416 24.038C55.7909 24.038 55.7276 24.0253 55.6516 24C55.5756 23.9493 55.4616 23.9113 55.3096 23.886L54.4356 24.038C54.2582 23.962 54.0302 23.886 53.7516 23.81L52.9916 23.962C52.7889 23.9113 52.6496 23.8607 52.5736 23.81L52.5356 23.696L52.8016 18.794C53.0296 18.3633 53.1436 18.0973 53.1436 17.996C53.1436 17.9453 53.1436 17.8947 53.1436 17.844C53.1436 17.7933 53.1309 17.73 53.1056 17.654C53.0549 17.4767 53.0422 17.35 53.0676 17.274C53.0676 17.1473 53.1056 16.9953 53.1816 16.818L53.2956 16.514L53.0676 15.716L53.1816 15.374C53.2069 15.3233 53.2322 15.2473 53.2576 15.146C53.2829 15.0447 53.3082 14.918 53.3336 14.766L53.6376 14.31L53.2576 14.044L53.3336 13.74V13.702C53.3336 13.6007 53.2829 13.4993 53.1816 13.398L53.2196 13.246C53.2702 13.2207 53.3336 13.1953 53.4096 13.17C53.4856 13.1193 53.5742 13.056 53.6756 12.98L53.7516 12.942C53.4729 12.714 53.3336 12.562 53.3336 12.486L53.4856 12.22C53.4856 12.1947 53.4096 12.144 53.2576 12.068V11.612C53.2576 11.5613 53.2576 11.5107 53.2576 11.46C53.2829 11.4093 53.3082 11.346 53.3336 11.27C53.3842 11.194 53.4729 11.156 53.5996 11.156L53.6756 11.08C53.4476 10.244 53.3336 9.76267 53.3336 9.636L53.4096 9.408L53.4856 9.142L53.5236 8.572C53.5489 8.54667 53.5742 8.52133 53.5996 8.496C53.6502 8.44533 53.7136 8.39467 53.7896 8.344L53.4856 8.002C53.4602 7.87533 53.4602 7.76133 53.4856 7.66C53.4096 7.28 53.3716 7.00133 53.3716 6.824C53.3716 6.748 53.3969 6.68467 53.4476 6.634C53.4729 6.634 53.5109 6.65933 53.5616 6.71C53.5869 6.60867 53.5996 6.52 53.5996 6.444C53.6249 6.368 53.6376 6.31733 53.6376 6.292C53.6122 6.16533 53.5996 6.08933 53.5996 6.064C53.5996 6.01333 53.5869 6.01333 53.5616 6.064L53.7136 5.038C53.7389 4.98733 53.7642 4.93667 53.7896 4.886C53.8149 4.83533 53.8402 4.78467 53.8656 4.734L53.7516 4.43C53.6502 4.25267 53.5996 4.15133 53.5996 4.126C53.5996 4.10067 53.6629 3.936 53.7896 3.632L54.1316 3.442C54.0556 3.366 53.9416 3.328 53.7896 3.328C53.7896 3.252 53.7769 3.176 53.7516 3.1C53.7516 3.024 53.7516 2.948 53.7516 2.872C53.7516 2.44133 53.7642 2.13733 53.7896 1.96C53.8149 1.75733 53.8402 1.694 53.8656 1.77L53.7896 1.58C53.7642 1.52933 53.7516 1.466 53.7516 1.39C53.7516 1.13667 53.9796 1.03533 54.4356 1.086L54.6636 1.162C54.7902 1.238 54.8662 1.276 54.8916 1.276L55.0436 1.2C55.0942 1.17467 55.1576 1.162 55.2336 1.162C55.3096 1.238 55.3856 1.30133 55.4616 1.352C55.7656 1.47867 55.9682 1.542 56.0696 1.542C56.1202 1.542 56.1709 1.47867 56.2216 1.352C56.3229 1.32667 56.4116 1.314 56.4876 1.314C56.5636 1.28867 56.6522 1.28867 56.7536 1.314C56.8042 1.314 56.9182 1.428 57.0956 1.656C57.2476 1.90933 57.3362 2.036 57.3616 2.036C57.3616 2.036 57.5009 1.93467 57.7796 1.732C58.0076 1.52933 58.1342 1.44066 58.1596 1.466L58.4256 1.504C58.4509 1.504 58.5016 1.466 58.5776 1.39C58.6789 1.33933 58.7422 1.314 58.7676 1.314C58.8689 1.314 58.9322 1.39 58.9576 1.542C58.9829 1.694 59.1096 1.78267 59.3376 1.808H59.4516C59.5022 1.70667 59.5276 1.63067 59.5276 1.58H59.6796L60.7816 1.808C60.9082 1.808 60.9842 1.85866 61.0096 1.96L61.1236 2.226C61.4782 2.02333 61.6302 1.922 61.5796 1.922C61.6556 1.97266 61.7822 2.06133 61.9596 2.188L62.4156 2.378C62.5169 2.454 62.5676 2.54267 62.5676 2.644C62.5676 2.72 62.5549 2.796 62.5296 2.872L62.4536 3.062C62.4536 3.214 62.6562 3.27733 63.0616 3.252H63.5556C63.5556 3.27733 63.5556 3.328 63.5556 3.404C63.5809 3.45467 63.6062 3.518 63.6316 3.594C63.6822 3.61933 63.7202 3.65733 63.7456 3.708C63.7962 3.75867 63.8469 3.80933 63.8976 3.86C64.1256 4.164 64.2396 4.354 64.2396 4.43C64.2396 4.506 64.2142 4.56933 64.1636 4.62L64.2016 4.696C64.2269 4.74667 64.2396 4.79733 64.2396 4.848L63.9736 5.228C63.9736 5.43067 64.1762 5.58267 64.5816 5.684L64.5436 5.76C64.5942 5.912 64.6196 6.07667 64.6196 6.254L64.7336 6.406V6.672L64.8096 6.824L64.7716 7.85C64.6702 7.95133 64.5816 8.078 64.5056 8.23C64.5056 8.25533 64.5309 8.33133 64.5816 8.458C64.7082 8.63533 64.7462 8.86333 64.6956 9.142L64.4676 9.864C64.4676 9.91467 64.4676 9.99067 64.4676 10.092C64.4676 10.1933 64.4549 10.3073 64.4296 10.434C64.3789 10.6367 64.2902 10.928 64.1636 11.308L63.9356 11.536C63.9862 11.7893 63.9736 11.954 63.8976 12.03C63.8216 12.1313 63.7836 12.1947 63.7836 12.22C63.7582 12.372 63.7709 12.524 63.8216 12.676L63.4036 13.132C63.4036 13.1827 63.3909 13.2333 63.3656 13.284C63.3149 13.284 63.2136 13.3093 63.0616 13.36C63.0109 13.4107 62.9602 13.5753 62.9096 13.854C62.8842 13.9553 62.7829 14.044 62.6056 14.12C62.5042 14.1453 62.4282 14.1833 62.3776 14.234C62.3522 14.2593 62.3269 14.2847 62.3016 14.31C62.2762 14.3607 62.2002 14.5 62.0736 14.728C62.0482 14.7533 61.6682 14.918 60.9336 15.222L60.4396 15.26L59.7936 15.45C59.7429 15.4247 59.6416 15.3867 59.4896 15.336L59.2616 15.374C59.1856 15.3993 59.1222 15.412 59.0716 15.412L58.5776 15.26L58.0076 15.146H57.7796C57.5769 15.146 57.3742 15.2473 57.1716 15.45L57.2096 16.248C57.1842 16.2987 57.1082 16.3873 56.9816 16.514C57.0322 16.6913 57.0576 16.856 57.0576 17.008C57.0576 17.1347 57.0576 17.2487 57.0576 17.35C57.0576 17.5273 57.0449 17.6413 57.0196 17.692L57.0956 18.3C56.9942 18.4267 56.9436 18.5153 56.9436 18.566L57.0576 19.478C56.9056 19.5793 56.8296 19.7313 56.8296 19.934C56.8296 20.1367 56.8549 20.2507 56.9056 20.276L56.9816 20.314C56.9056 21.986 56.7916 23.0627 56.6396 23.544C56.6902 23.6453 56.7536 23.7467 56.8296 23.848V24.076ZM54.9676 2.492C55.0436 2.416 55.0689 2.36533 55.0436 2.34L54.8156 2.302L54.7776 2.416L54.9676 2.492ZM54.6256 2.834L54.7016 2.758C54.7016 2.63133 54.6636 2.47933 54.5876 2.302C54.4862 2.40333 54.4356 2.50467 54.4356 2.606L54.4736 2.834H54.6256ZM58.0836 2.72C58.1596 2.74533 58.2356 2.70733 58.3116 2.606C58.2609 2.55533 58.1976 2.54267 58.1216 2.568C58.0962 2.59333 58.0836 2.644 58.0836 2.72ZM61.0096 3.746C61.0349 3.69533 61.0222 3.64467 60.9716 3.594C60.9209 3.54333 60.8702 3.54333 60.8196 3.594C60.8196 3.69533 60.8829 3.746 61.0096 3.746ZM57.6656 4.658L57.7036 4.582C57.6782 4.506 57.6276 4.468 57.5516 4.468C57.5009 4.56933 57.4629 4.63267 57.4376 4.658H57.6656ZM57.2096 11.726C57.2096 11.726 57.2856 11.7007 57.4376 11.65L57.5896 11.574C57.6402 11.5993 57.7416 11.612 57.8936 11.612L58.2736 11.574C58.4256 11.574 58.5142 11.612 58.5396 11.688C58.6916 11.6373 58.7929 11.612 58.8436 11.612L59.1476 11.688C59.1982 11.688 59.2742 11.65 59.3756 11.574C59.4516 11.498 59.5022 11.46 59.5276 11.46C59.5276 11.46 59.5656 11.4853 59.6416 11.536C59.6922 11.536 59.7936 11.46 59.9456 11.308C60.0976 11.1053 60.2116 10.9913 60.2876 10.966C60.3889 10.434 60.4269 10.1553 60.4016 10.13L60.4776 9.484C60.5536 9.332 60.6296 9.142 60.7056 8.914L60.6676 8.42C60.6422 8.24267 60.6169 8.10333 60.5916 8.002C60.5916 7.87533 60.5916 7.774 60.5916 7.698C60.7182 7.622 60.8322 7.508 60.9336 7.356C60.9336 7.25467 60.8576 7.15333 60.7056 7.052L60.4016 6.824C60.4269 6.748 60.4396 6.65933 60.4396 6.558C60.4396 6.30467 60.3256 6.14 60.0976 6.064C60.1229 6.064 60.1356 6.05133 60.1356 6.026C60.1356 5.95 60.0342 5.81067 59.8316 5.608L59.4896 5.228C59.4389 5.228 59.4009 5.21533 59.3756 5.19C59.2996 5.266 59.2616 5.342 59.2616 5.418H58.9196C58.8436 5.39267 58.7422 5.38 58.6156 5.38C58.0076 5.38 57.7036 5.494 57.7036 5.722L57.8556 6.026C57.8556 6.07667 57.7669 6.178 57.5896 6.33C57.7416 6.58333 57.8176 6.77333 57.8176 6.9C57.7922 7.15333 57.6529 7.29267 57.3996 7.318C57.4502 7.47 57.5136 7.584 57.5896 7.66C57.6149 7.76133 57.6276 7.90067 57.6276 8.078C57.6276 8.23 57.6276 8.40733 57.6276 8.61L57.5516 8.724V9.104L57.5896 9.256C57.6149 9.332 57.6276 9.42067 57.6276 9.522C57.6276 9.57267 57.5896 9.58533 57.5136 9.56C57.6402 9.68667 57.6149 9.81333 57.4376 9.94L57.5516 10.168C57.3489 10.32 57.2476 10.434 57.2476 10.51L57.3236 10.662L57.4376 10.928C57.2096 11.1813 57.0956 11.3713 57.0956 11.498L57.0576 11.65L57.2096 11.726ZM54.0176 5.988C54.0936 5.988 54.1316 5.912 54.1316 5.76C54.0809 5.76 54.0302 5.78533 53.9796 5.836C53.9542 5.86133 53.9669 5.912 54.0176 5.988ZM62.6816 6.558C62.7069 6.53267 62.7196 6.49467 62.7196 6.444C62.7196 6.368 62.6689 6.33 62.5676 6.33C62.5422 6.406 62.5802 6.482 62.6816 6.558ZM55.1576 7.128C55.2336 7.07733 55.2716 7.00133 55.2716 6.9C55.2209 6.87467 55.1702 6.88733 55.1196 6.938C55.0942 6.96333 55.1069 7.02667 55.1576 7.128ZM63.5556 7.28L63.6316 7.242C63.6569 7.242 63.6822 7.22933 63.7076 7.204L63.6316 7.09C63.6062 7.11533 63.5936 7.14067 63.5936 7.166C63.5936 7.19133 63.5809 7.22933 63.5556 7.28ZM62.9096 8.078C62.9349 8.05267 62.9982 8.01467 63.0996 7.964C63.0742 7.93867 63.0109 7.93867 62.9096 7.964V8.078ZM64.0116 9.332L64.0876 9.218C64.0622 9.19267 64.0496 9.11667 64.0496 8.99C63.9736 8.838 63.8469 8.762 63.6696 8.762H63.5936C63.4922 8.762 63.3909 8.81267 63.2896 8.914V8.99C63.4669 9.01533 63.7076 9.12933 64.0116 9.332ZM54.3216 12.03C54.3469 11.9793 54.3342 11.9287 54.2836 11.878C54.2582 11.8273 54.2076 11.84 54.1316 11.916C54.1316 11.992 54.1949 12.03 54.3216 12.03ZM57.2476 12.448C57.3236 12.4733 57.3869 12.4607 57.4376 12.41C57.4629 12.3847 57.4502 12.3213 57.3996 12.22C57.3489 12.22 57.2982 12.296 57.2476 12.448ZM62.1876 12.448C62.2636 12.4733 62.3396 12.4353 62.4156 12.334C62.3902 12.3087 62.3522 12.296 62.3016 12.296C62.2256 12.296 62.1876 12.3467 62.1876 12.448ZM58.7676 12.866L58.6916 12.752L58.6536 12.79L58.6916 12.866H58.7676ZM59.3756 13.398L59.4136 13.208L59.3376 13.132L59.1476 13.094L59.0336 13.208C59.0589 13.2333 59.0716 13.2713 59.0716 13.322L59.3756 13.398ZM55.6516 14.538C55.7022 14.538 55.7402 14.5253 55.7656 14.5V14.31L55.5376 14.196C55.6136 14.1707 55.6136 14.044 55.5376 13.816C55.5629 13.7653 55.5756 13.664 55.5756 13.512L55.0436 13.664V13.854C55.0182 13.9047 55.0942 14.0313 55.2716 14.234C55.4742 14.4367 55.6009 14.538 55.6516 14.538ZM59.6416 14.576L59.7556 14.424L59.5656 14.386L59.4896 14.538C59.5149 14.5633 59.5656 14.576 59.6416 14.576ZM60.1356 14.538L60.2496 14.386H59.9836L60.1356 14.538ZM58.1596 14.804C58.2609 14.8293 58.3369 14.8167 58.3876 14.766L58.3116 14.69C58.1849 14.7407 58.1342 14.7787 58.1596 14.804ZM55.4996 17.768L55.3856 17.654C55.3349 17.654 55.2969 17.6667 55.2716 17.692L55.4996 17.768ZM55.4996 18.376C55.5249 18.3253 55.5122 18.2747 55.4616 18.224C55.4362 18.1987 55.3729 18.2113 55.2716 18.262C55.2716 18.338 55.3476 18.376 55.4996 18.376ZM56.4116 18.414C56.4369 18.3887 56.4496 18.3253 56.4496 18.224H56.2976C56.3229 18.2493 56.3609 18.3127 56.4116 18.414ZM53.9416 20.846C53.9669 20.8207 53.9922 20.7953 54.0176 20.77C54.0682 20.7447 54.1062 20.7193 54.1316 20.694L53.9036 20.58L53.8276 20.656C53.8782 20.7573 53.9162 20.8207 53.9416 20.846ZM53.1816 20.808C53.2322 20.8587 53.2829 20.8587 53.3336 20.808L53.2956 20.694C53.2702 20.694 53.2322 20.732 53.1816 20.808ZM55.3096 23.012C55.3349 22.9613 55.3222 22.9107 55.2716 22.86C55.2462 22.8347 55.1829 22.8473 55.0816 22.898C55.0816 22.974 55.1576 23.012 55.3096 23.012ZM75.8616 24.57C75.8363 24.5447 75.7856 24.5193 75.7096 24.494C75.6336 24.4687 75.5323 24.4433 75.4056 24.418H74.7216C74.671 24.4433 74.5696 24.456 74.4176 24.456C74.3923 24.4307 74.3416 24.4053 74.2656 24.38C74.215 24.3547 74.1516 24.3293 74.0756 24.304L73.6956 24.342C73.569 24.3673 73.4676 24.3673 73.3916 24.342C73.341 24.342 73.303 24.342 73.2776 24.342C73.1256 24.342 72.999 24.2913 72.8976 24.19V23.962C72.8216 23.7087 72.8343 23.544 72.9356 23.468C72.9103 23.4427 72.8596 23.43 72.7836 23.43C72.7583 23.3793 72.7583 23.3413 72.7836 23.316C72.809 23.2653 72.8216 23.2273 72.8216 23.202L72.8596 23.088C72.8596 23.012 72.7836 22.9233 72.6316 22.822C72.6316 22.7207 72.7203 22.6193 72.8976 22.518V22.48C72.7963 22.4293 72.7203 22.366 72.6696 22.29C72.6443 22.2393 72.619 22.1127 72.5936 21.91C72.5683 21.7073 72.543 21.4413 72.5176 21.112C72.3403 20.96 72.2516 20.7573 72.2516 20.504C72.2516 20.428 72.315 20.162 72.4416 19.706C72.3656 19.63 72.239 19.5793 72.0616 19.554C72.011 19.5033 71.9983 19.4527 72.0236 19.402L72.1756 18.946C72.1503 18.946 72.1123 18.8827 72.0616 18.756C72.0363 18.7053 72.011 18.642 71.9856 18.566C71.9603 18.49 71.9223 18.3887 71.8716 18.262C71.897 18.186 71.9096 18.0213 71.9096 17.768C71.9096 17.768 71.8843 17.7427 71.8336 17.692C71.8336 17.6413 71.8083 17.5273 71.7576 17.35C71.7323 17.1473 71.6943 16.9067 71.6436 16.628C71.593 16.3493 71.5423 16.1087 71.4916 15.906C71.4663 15.7033 71.4536 15.5387 71.4536 15.412C71.4536 15.2347 71.4916 15.108 71.5676 15.032C71.5423 14.9813 71.4283 14.9307 71.2256 14.88C70.9216 14.88 70.6303 14.9813 70.3516 15.184L70.1616 16.324C70.1363 16.3493 70.0983 16.3747 70.0476 16.4C70.0223 16.4253 69.9843 16.4633 69.9336 16.514V16.59C69.9336 16.6153 69.9336 16.666 69.9336 16.742C69.959 16.7927 69.9843 16.856 70.0096 16.932C70.111 16.932 70.225 16.9827 70.3516 17.084L70.2756 17.54C70.225 17.7173 70.2376 17.8567 70.3136 17.958L70.0096 17.92L69.9336 18.072L70.0476 18.224C70.1236 18.3253 70.1616 18.4013 70.1616 18.452L69.8956 19.554L70.0096 20.01C70.0096 20.086 69.997 20.1493 69.9716 20.2L69.8956 20.39C69.921 20.5167 69.9463 20.6687 69.9716 20.846C69.997 20.998 70.0223 21.1627 70.0476 21.34C70.0476 21.3907 69.959 21.5047 69.7816 21.682C69.579 21.9353 69.4776 22.062 69.4776 22.062C69.4776 22.1633 69.5663 22.2393 69.7436 22.29C69.921 22.3153 70.0096 22.328 70.0096 22.328L69.8956 24.114L69.8196 24.266C69.769 24.2153 69.6676 24.1393 69.5156 24.038L69.2876 24.076C69.2116 24.1013 69.1483 24.114 69.0976 24.114L68.5276 23.924C68.5276 23.924 68.477 23.9493 68.3756 24C68.2743 24.0507 68.211 24.076 68.1856 24.076C67.8563 24.1013 67.6283 24.1013 67.5016 24.076C67.451 24.0507 67.375 24.0127 67.2736 23.962C67.1723 23.9113 67.0583 23.848 66.9316 23.772H66.8176C66.7163 23.9493 66.615 24.038 66.5136 24.038L66.0576 23.924C66.0323 23.9493 65.9943 23.962 65.9436 23.962C65.893 23.962 65.8423 23.9747 65.7916 24C65.589 24 65.4876 23.9113 65.4876 23.734C65.5636 23.658 65.6523 23.5313 65.7536 23.354C65.7283 23.3033 65.7156 23.164 65.7156 22.936C65.7156 22.8853 65.7156 22.8347 65.7156 22.784C65.741 22.708 65.7663 22.6193 65.7916 22.518L65.8676 22.214C65.8676 22.1887 65.8676 22.138 65.8676 22.062C65.8676 21.986 65.855 21.8847 65.8296 21.758L65.7536 21.302C65.779 20.1113 65.855 19.1867 65.9816 18.528L66.0956 18.186C66.0956 18.11 66.083 18.034 66.0576 17.958L65.9816 17.73C65.9816 17.7047 66.007 17.6413 66.0576 17.54C66.007 17.464 66.007 17.3627 66.0576 17.236L66.2096 16.932C66.2096 16.9067 66.2096 16.8687 66.2096 16.818C66.2096 16.7673 66.197 16.6913 66.1716 16.59L66.0956 16.248C66.0956 16.2227 66.1336 16.058 66.2096 15.754C66.2856 15.45 66.3363 15.2853 66.3616 15.26C66.2603 15.108 66.197 14.956 66.1716 14.804C66.2223 14.7533 66.273 14.7027 66.3236 14.652C66.3743 14.6013 66.425 14.538 66.4756 14.462C66.4756 14.31 66.3996 14.1453 66.2476 13.968L66.4756 10.016C66.5263 9.96533 66.577 9.902 66.6276 9.826C66.7036 9.75 66.767 9.674 66.8176 9.598C66.7923 9.57267 66.7416 9.56 66.6656 9.56L66.5516 8.876C66.5516 8.648 66.5643 8.48333 66.5896 8.382L66.5516 8.268C66.577 8.24267 66.615 8.17933 66.6656 8.078V7.812C66.6656 7.76133 66.653 7.71067 66.6276 7.66C66.6276 7.60933 66.6276 7.57133 66.6276 7.546C66.7036 7.47 66.7796 7.356 66.8556 7.204L66.6276 6.634V6.178C66.653 6.102 66.691 6.01333 66.7416 5.912C66.7923 5.81067 66.843 5.69667 66.8936 5.57C66.8936 5.54467 66.881 5.532 66.8556 5.532C66.8556 5.50667 66.8556 5.48133 66.8556 5.456C66.8556 5.38 66.8683 5.304 66.8936 5.228C66.9443 5.152 66.9823 5.06333 67.0076 4.962C66.9316 4.886 66.8556 4.772 66.7796 4.62L66.8176 4.126C66.8176 4.02467 66.9443 3.84733 67.1976 3.594C67.4256 3.366 67.527 3.176 67.5016 3.024L66.7036 2.72C66.7543 2.59333 66.8303 2.51733 66.9316 2.492L66.8556 1.466C66.7796 1.33933 66.7416 1.25067 66.7416 1.2C66.995 1.09867 67.1596 1.06067 67.2356 1.086C67.2863 1.086 67.375 1.13667 67.5016 1.238C67.603 1.33933 67.7043 1.39 67.8056 1.39C67.8563 1.33933 67.9196 1.28867 67.9956 1.238C68.097 1.18733 68.1983 1.14933 68.2996 1.124C68.3503 1.17467 68.4263 1.238 68.5276 1.314C68.6543 1.36467 68.781 1.428 68.9076 1.504L68.9456 1.352L69.2116 1.276C69.3383 1.2 69.4143 1.17467 69.4396 1.2C69.4903 1.2 69.6043 1.276 69.7816 1.428C69.959 1.60533 70.073 1.694 70.1236 1.694C70.1743 1.694 70.2883 1.63067 70.4656 1.504C70.5923 1.45333 70.6936 1.41533 70.7696 1.39C70.871 1.36467 70.947 1.36467 70.9976 1.39L71.1496 1.428C71.1496 1.428 71.2003 1.40267 71.3016 1.352C71.3523 1.30133 71.403 1.276 71.4536 1.276C71.555 1.276 71.6943 1.40267 71.8716 1.656C71.9223 1.656 71.9856 1.60533 72.0616 1.504C72.1376 1.428 72.1883 1.40267 72.2136 1.428L72.8216 1.694C72.8723 1.694 72.923 1.694 72.9736 1.694C73.0243 1.66867 73.075 1.64333 73.1256 1.618L73.3156 1.846L74.1136 1.96C74.139 1.98533 74.1643 2.01067 74.1896 2.036C74.215 2.06133 74.253 2.08667 74.3036 2.112C74.6836 2.13733 75.0003 2.17533 75.2536 2.226L75.9376 2.682C75.9376 2.682 75.963 2.73266 76.0136 2.834V2.872C76.0136 3.04933 76.1403 3.214 76.3936 3.366L77.0016 3.708V4.05L77.1916 4.468C77.1663 4.62 77.1283 4.78467 77.0776 4.962C77.027 5.114 76.9763 5.27867 76.9256 5.456C76.9256 5.48133 76.9383 5.494 76.9636 5.494L77.1536 5.304C77.255 5.20267 77.3436 5.152 77.4196 5.152L77.4956 5.19C77.521 5.21533 77.5463 5.29133 77.5716 5.418C77.597 5.54467 77.635 5.722 77.6856 5.95L77.7996 6.14V6.52L77.6856 6.634C77.7363 6.862 77.749 6.98867 77.7236 7.014C77.6476 7.03933 77.5716 7.11533 77.4956 7.242C77.4956 7.242 77.521 7.26733 77.5716 7.318C77.597 7.34333 77.6856 7.356 77.8376 7.356V7.432C77.8376 7.48267 77.8123 7.60933 77.7616 7.812H77.7236C77.6983 7.812 77.6603 7.90067 77.6096 8.078C77.559 8.25533 77.559 8.344 77.6096 8.344C77.6856 8.344 77.749 8.31867 77.7996 8.268C77.825 8.21733 77.8376 8.154 77.8376 8.078C77.8376 8.002 77.8376 7.98933 77.8376 8.04L77.7996 8.61C77.7743 8.63533 77.7363 8.69867 77.6856 8.8C77.6856 8.90133 77.673 9.04067 77.6476 9.218C77.6476 9.39533 77.635 9.598 77.6096 9.826L77.4196 10.168C77.369 10.3453 77.331 10.548 77.3056 10.776L77.3436 11.042C77.3183 11.0673 77.3056 11.0927 77.3056 11.118C77.3056 11.1433 77.293 11.1813 77.2676 11.232C77.2423 11.5613 77.1283 11.802 76.9256 11.954V12.106C76.9256 12.1567 76.913 12.22 76.8876 12.296C76.8876 12.3467 76.875 12.41 76.8496 12.486C76.7483 12.562 76.4443 12.98 75.9376 13.74L75.5956 13.892C75.4436 13.968 75.3423 14.082 75.2916 14.234C75.3676 14.3607 75.431 14.5253 75.4816 14.728C75.4816 14.9053 75.4183 14.994 75.2916 14.994C75.1396 14.994 75.0636 15.0067 75.0636 15.032C75.0636 15.108 75.1523 15.146 75.3296 15.146C75.4563 15.146 75.5196 15.222 75.5196 15.374L75.4816 15.83C75.0256 15.906 74.7976 15.982 74.7976 16.058C74.7976 16.1087 75.0636 16.1593 75.5956 16.21C75.5703 16.2353 75.5323 16.3493 75.4816 16.552L75.6716 16.666L75.8996 17.616L76.0516 17.882C75.8743 18.0087 75.7223 18.186 75.5956 18.414L75.6716 18.566C75.7983 18.642 75.9123 18.7687 76.0136 18.946C76.0643 19.022 76.1023 19.1487 76.1276 19.326L76.3936 19.516C76.3936 19.5667 76.3936 19.63 76.3936 19.706C76.3936 19.782 76.4063 19.858 76.4316 19.934C76.4063 19.9847 76.3936 20.1113 76.3936 20.314C76.4696 20.39 76.5076 20.4913 76.5076 20.618L76.5836 21.454C76.609 21.4793 76.6343 21.53 76.6596 21.606C76.685 21.682 76.7103 21.7833 76.7356 21.91C76.609 22.0367 76.5456 22.1507 76.5456 22.252C76.5203 22.404 76.571 22.48 76.6976 22.48C76.723 22.48 76.7863 22.4547 76.8876 22.404L76.9256 23.05C76.9256 23.05 77.0523 23.3413 77.3056 23.924C77.331 23.9493 77.3436 24.0253 77.3436 24.152C77.3436 24.4307 77.2423 24.57 77.0396 24.57C76.8116 24.57 76.6596 24.532 76.5836 24.456C76.5076 24.3547 76.457 24.304 76.4316 24.304C76.305 24.4053 76.115 24.494 75.8616 24.57ZM72.0996 2.834C72.125 2.78333 72.1123 2.73267 72.0616 2.682C72.011 2.63133 71.9603 2.63133 71.9096 2.682C71.9096 2.73267 71.973 2.78333 72.0996 2.834ZM67.8056 4.734L67.9576 4.62C67.9576 4.59467 67.907 4.59467 67.8056 4.62C67.7803 4.62 67.7803 4.658 67.8056 4.734ZM68.2616 5.038C68.3376 5.06333 68.4136 5.02533 68.4896 4.924C68.439 4.87333 68.401 4.848 68.3756 4.848C68.2996 4.848 68.2616 4.91133 68.2616 5.038ZM75.2916 5.342C75.3676 5.36733 75.4436 5.32933 75.5196 5.228C75.4943 5.20267 75.4563 5.19 75.4056 5.19C75.3296 5.19 75.2916 5.24067 75.2916 5.342ZM71.9096 11.574L72.2896 11.308L72.7836 11.232L72.8216 11.08L72.7456 10.814C72.771 10.7887 72.809 10.7507 72.8596 10.7C72.9356 10.6493 73.0243 10.586 73.1256 10.51C73.151 10.4087 73.227 10.32 73.3536 10.244C73.3536 9.99067 73.3916 9.62333 73.4676 9.142C73.4676 9.04067 73.4676 8.914 73.4676 8.762C73.493 8.61 73.5183 8.44533 73.5436 8.268C73.569 8.21733 73.5943 8.16667 73.6196 8.116C73.645 8.04 73.6703 7.95133 73.6956 7.85L73.6196 7.698C73.569 7.59667 73.5436 7.546 73.5436 7.546C73.5183 7.47 73.5056 7.36867 73.5056 7.242C73.5056 7.166 73.5056 7.07733 73.5056 6.976C73.531 6.87467 73.5563 6.76067 73.5816 6.634L73.6196 6.14V6.064C73.6196 5.81067 73.379 5.646 72.8976 5.57L72.4036 5.494L71.9856 5.418C71.8843 5.418 71.7703 5.43067 71.6436 5.456C71.5423 5.456 71.4283 5.46867 71.3016 5.494C71.1496 5.54467 71.0103 5.65867 70.8836 5.836L70.8456 5.95C70.719 6.07667 70.6303 6.20333 70.5796 6.33C70.5796 6.35533 70.5923 6.406 70.6176 6.482C70.6683 6.53267 70.7063 6.62133 70.7316 6.748L70.8836 7.166C70.833 7.21667 70.757 7.318 70.6556 7.47C70.6303 7.57133 70.5923 7.67267 70.5416 7.774C70.5163 7.87533 70.4783 7.98933 70.4276 8.116C70.4276 8.116 70.491 8.20467 70.6176 8.382C70.7443 8.58467 70.8076 8.686 70.8076 8.686C70.7823 8.78733 70.7443 8.88867 70.6936 8.99C70.6683 9.066 70.643 9.16733 70.6176 9.294V9.826L70.5796 10.472V10.586C70.5796 10.814 70.643 10.9913 70.7696 11.118C70.8203 11.194 70.8963 11.27 70.9976 11.346C71.023 11.346 71.0863 11.308 71.1876 11.232C71.2636 11.156 71.3143 11.118 71.3396 11.118C71.4156 11.118 71.5803 11.27 71.8336 11.574H71.9096ZM74.7216 7.964C74.8736 7.964 75.0763 7.774 75.3296 7.394C75.2536 7.318 75.203 7.242 75.1776 7.166L74.8356 7.052C74.7343 7.052 74.6076 7.128 74.4556 7.28C74.4556 7.48267 74.5443 7.71067 74.7216 7.964ZM67.8436 8.686C67.9196 8.71133 67.9956 8.67333 68.0716 8.572C68.021 8.52133 67.983 8.496 67.9576 8.496C67.8816 8.496 67.8436 8.55933 67.8436 8.686ZM68.8316 12.372C68.857 12.3467 68.8696 12.3087 68.8696 12.258C68.8696 12.182 68.819 12.144 68.7176 12.144C68.6923 12.22 68.7303 12.296 68.8316 12.372ZM71.6056 12.296C71.6563 12.3213 71.7323 12.2833 71.8336 12.182C71.8083 12.1567 71.7576 12.144 71.6816 12.144C71.6056 12.144 71.5803 12.1947 71.6056 12.296ZM74.4556 13.512L74.5696 13.436C74.5696 13.3853 74.557 13.3473 74.5316 13.322L74.4556 13.512ZM69.9716 14.234C69.997 14.1833 69.9843 14.1327 69.9336 14.082C69.9083 14.0313 69.8576 14.044 69.7816 14.12C69.7816 14.196 69.845 14.234 69.9716 14.234ZM72.8976 14.652C72.9736 14.6773 73.037 14.6647 73.0876 14.614C73.113 14.5887 73.1003 14.5253 73.0496 14.424C72.999 14.424 72.9483 14.5 72.8976 14.652ZM74.6456 17.084C74.671 17.0333 74.6583 16.9827 74.6076 16.932C74.5823 16.9067 74.519 16.9193 74.4176 16.97C74.4176 17.046 74.4936 17.084 74.6456 17.084ZM73.4296 20.048C73.4803 20.048 73.5563 20.01 73.6576 19.934C73.759 19.8833 73.8223 19.858 73.8476 19.858H73.8856V19.402L73.4296 19.288C73.4296 19.4147 73.4423 19.4907 73.4676 19.516C73.4676 19.516 73.455 19.6047 73.4296 19.782C73.4043 19.8327 73.3916 19.9087 73.3916 20.01C73.3916 20.0353 73.4043 20.048 73.4296 20.048ZM67.1216 20.542C67.2736 20.466 67.3496 20.39 67.3496 20.314C67.3496 20.2127 67.261 20.124 67.0836 20.048L66.7796 19.896L66.7036 19.972C66.7543 20.0733 66.8176 20.1747 66.8936 20.276C66.9696 20.352 67.0456 20.4407 67.1216 20.542ZM66.9316 22.708C66.957 22.6573 66.9443 22.6067 66.8936 22.556C66.8683 22.5053 66.8176 22.518 66.7416 22.594C66.7416 22.67 66.805 22.708 66.9316 22.708ZM67.8816 22.556H67.7676C67.793 22.5813 67.831 22.6447 67.8816 22.746V22.556ZM85.6888 24.456L85.0808 24.342L84.7008 24.418C84.5994 24.418 84.4728 24.418 84.3208 24.418C84.1941 24.418 84.0674 24.4053 83.9408 24.38L83.5988 24.228H83.2188C83.0668 24.0507 82.8261 23.924 82.4968 23.848C82.1674 23.8227 81.9394 23.696 81.8128 23.468L81.6988 23.354C81.6228 23.3793 81.4961 23.3667 81.3188 23.316C81.2174 23.1893 81.0908 23.05 80.9388 22.898C80.7868 22.746 80.6094 22.5687 80.4068 22.366C80.4068 22.3153 80.3941 22.252 80.3688 22.176C80.3688 22.1 80.3561 22.0113 80.3308 21.91C80.2548 21.834 80.1661 21.7453 80.0648 21.644C79.9888 21.5173 79.9001 21.3653 79.7988 21.188C79.8494 21.036 79.8494 20.808 79.7988 20.504L79.6848 20.314V19.934C79.6848 19.8073 79.6848 19.6553 79.6848 19.478C79.6848 19.3007 79.6721 19.1233 79.6468 18.946C79.5708 18.87 79.4948 18.756 79.4188 18.604L79.3428 17.882L79.4188 17.426L79.4568 16.97C79.4568 16.9447 79.4314 16.8813 79.3808 16.78V16.362C79.3554 16.286 79.3174 16.172 79.2668 16.02L79.3808 14.918L79.1528 13.322L79.2668 13.056C79.3174 12.8787 79.3301 12.752 79.3048 12.676L79.1908 12.334C79.1908 12.182 79.1908 11.992 79.1908 11.764C79.1908 11.5107 79.1781 11.2193 79.1528 10.89C79.0514 10.7633 79.0008 10.548 79.0008 10.244C78.9754 10.0667 78.9754 9.94 79.0008 9.864C79.0768 9.68667 79.1274 9.58533 79.1528 9.56L78.9628 9.37C78.9374 9.11667 78.9248 8.90133 78.9248 8.724C78.9248 8.52133 78.9248 8.33133 78.9248 8.154C78.9248 7.97667 78.9248 7.82467 78.9248 7.698C78.9248 7.546 78.9374 7.41933 78.9628 7.318C79.0641 7.09 79.1401 6.96333 79.1908 6.938C79.3174 6.91267 79.4441 6.77333 79.5708 6.52L79.6088 6.482C79.6088 6.43133 79.5074 6.34267 79.3048 6.216C79.1021 6.08933 79.0008 5.988 79.0008 5.912C79.0261 5.86133 79.0514 5.81067 79.0768 5.76C79.1021 5.70933 79.1274 5.63333 79.1528 5.532C79.1021 5.32933 79.0768 5.114 79.0768 4.886C79.1781 4.75933 79.2921 4.582 79.4188 4.354C79.5708 4.126 79.7354 3.87267 79.9128 3.594V3.366C79.9381 3.29 79.9761 3.20133 80.0268 3.1C80.0774 2.99867 80.1281 2.89733 80.1788 2.796L80.4068 2.644C80.5334 2.568 80.7234 2.416 80.9768 2.188L81.4328 1.77C81.4328 1.77 81.4581 1.77 81.5088 1.77C81.5594 1.77 81.6354 1.75733 81.7368 1.732C81.7874 1.68133 81.8128 1.618 81.8128 1.542C81.8888 1.56733 81.9521 1.59267 82.0028 1.618C82.0788 1.64333 82.1421 1.64333 82.1928 1.618L82.3448 1.58C82.7754 1.276 83.0288 1.124 83.1048 1.124L83.2948 1.2C83.2948 1.2 83.2948 1.21267 83.2948 1.238C83.3201 1.238 83.3454 1.238 83.3708 1.238C83.7254 1.238 83.8901 1.14933 83.8648 0.972C83.9914 0.895999 84.0928 0.857999 84.1688 0.857999C84.2701 0.908665 84.3334 0.984665 84.3588 1.086C84.3588 1.11133 84.4221 1.124 84.5488 1.124C84.5994 1.07333 84.6628 1.03533 84.7388 1.01C84.8401 0.959332 84.9414 0.921331 85.0428 0.895998C85.1441 0.921331 85.2454 0.959332 85.3468 1.01C85.4481 1.03533 85.5621 1.06067 85.6888 1.086L85.9928 1.048H86.1068C86.1828 1.048 86.2461 1.06067 86.2968 1.086C86.3728 1.086 86.4488 1.09866 86.5248 1.124C86.5501 1.25067 86.6388 1.36467 86.7908 1.466H86.9048C87.0568 1.466 87.2468 1.504 87.4748 1.58C87.5001 1.60533 87.5254 1.656 87.5508 1.732C87.5761 1.78267 87.6014 1.846 87.6268 1.922V2.15L87.7028 2.188C87.8041 2.08667 87.9181 2.036 88.0448 2.036H88.0828C88.2348 2.036 88.4248 2.188 88.6528 2.492C88.6781 2.51733 88.7034 2.58067 88.7288 2.682C88.7541 2.758 88.7794 2.85933 88.8048 2.986L88.9948 3.1C89.0201 3.1 89.0454 3.16333 89.0708 3.29C89.1214 3.31533 89.2228 3.404 89.3748 3.556L89.6408 3.67C89.6408 3.79667 89.5901 3.92333 89.4888 4.05C89.3874 4.22733 89.3368 4.36667 89.3368 4.468V4.582C89.3874 4.78467 89.6028 5.02533 89.9828 5.304L90.2108 5.836C90.2108 5.836 90.1981 5.88667 90.1728 5.988C90.1474 6.064 90.1094 6.19067 90.0588 6.368C90.0588 6.444 90.0714 6.49467 90.0968 6.52C90.0208 6.92533 89.9828 7.19133 89.9828 7.318L90.1728 7.736C90.1728 7.812 90.0841 7.90067 89.9068 8.002C89.7294 8.10333 89.6408 8.17933 89.6408 8.23V8.268C89.7674 8.31867 89.8814 8.39467 89.9828 8.496C90.1094 8.572 90.2234 8.66067 90.3248 8.762C90.3248 8.78733 90.2994 8.85067 90.2488 8.952L90.1728 9.104C90.1981 9.18 90.2108 9.34467 90.2108 9.598C90.1854 9.72467 90.1728 9.77533 90.1728 9.75C90.1728 9.72467 90.1728 9.73733 90.1728 9.788L90.2108 10.472V10.51L90.1728 10.662C90.2741 10.814 90.3628 11.042 90.4388 11.346V11.422C90.4388 11.498 90.4008 11.5993 90.3248 11.726L90.2108 11.954V12.068C90.2108 12.2707 90.2488 12.6 90.3248 13.056L90.1728 13.094C90.0968 13.094 90.0588 13.1193 90.0588 13.17C90.0588 13.17 90.1221 13.2333 90.2488 13.36C90.2488 13.6133 90.3121 13.7653 90.4388 13.816C90.5401 13.892 90.5908 14.006 90.5908 14.158C90.5401 14.2847 90.5401 14.4873 90.5908 14.766C90.5654 14.918 90.4768 14.994 90.3248 14.994C90.2741 14.994 90.2361 14.9813 90.2108 14.956C90.1854 14.9307 90.1474 14.918 90.0968 14.918C89.9954 14.9687 89.9068 15.032 89.8308 15.108C89.9574 15.184 90.0461 15.222 90.0968 15.222C90.1728 15.222 90.2614 15.184 90.3628 15.108C90.4388 15.1333 90.4768 15.2347 90.4768 15.412L90.5148 15.792C90.5908 15.8427 90.6414 15.9313 90.6668 16.058C90.6668 16.1847 90.6161 16.2987 90.5148 16.4C90.5148 16.4 90.5401 16.4253 90.5908 16.476L90.7048 16.628L90.6288 16.818C90.6034 16.894 90.5908 16.9573 90.5908 17.008C90.5908 17.0587 90.5908 17.0967 90.5908 17.122L90.4388 17.236C90.6414 17.5907 90.7428 17.8313 90.7428 17.958L90.7048 18.072C90.7048 18.0973 90.6921 18.1227 90.6668 18.148C90.6414 18.148 90.6288 18.1607 90.6288 18.186C90.6541 18.2367 90.6668 18.3127 90.6668 18.414C90.6668 18.49 90.6668 18.5787 90.6668 18.68C90.6161 18.7053 90.5401 18.794 90.4388 18.946L90.5148 19.744V19.896C90.5148 20.0987 90.4768 20.238 90.4008 20.314L90.2868 20.428L90.2488 20.808C90.0461 21.0867 89.9448 21.2133 89.9448 21.188C89.9448 21.2133 89.9828 21.2513 90.0588 21.302C90.0334 21.3273 90.0081 21.3527 89.9828 21.378C89.9574 21.378 89.9321 21.4033 89.9068 21.454L89.8688 21.872C89.8434 21.8973 89.6788 22.0493 89.3748 22.328C89.2228 22.4293 89.1341 22.5813 89.1088 22.784C88.9061 22.9107 88.7414 22.9993 88.6148 23.05C88.6401 23.0247 88.6148 23.012 88.5388 23.012L88.0448 23.734C87.9941 23.7593 87.9308 23.772 87.8548 23.772C87.8041 23.772 87.7281 23.7847 87.6268 23.81L87.3228 24C87.2721 24 87.2088 24 87.1328 24C87.0821 24.0253 87.0061 24.0507 86.9048 24.076L86.2208 24.418C86.1701 24.418 86.1321 24.4053 86.1068 24.38C86.0814 24.3547 86.0308 24.342 85.9548 24.342L85.6888 24.456ZM86.4488 3.138L86.6008 3.024C86.6008 2.99867 86.5501 2.99867 86.4488 3.024V3.138ZM86.9428 3.366C87.0188 3.39133 87.0948 3.35333 87.1708 3.252C87.1454 3.22667 87.0948 3.214 87.0188 3.214C86.9681 3.214 86.9428 3.26466 86.9428 3.366ZM84.9288 4.24L85.1188 4.202L85.0428 4.05C84.9161 4.10067 84.8781 4.164 84.9288 4.24ZM84.7388 21.036C84.7894 21.036 84.9414 20.96 85.1948 20.808C85.3214 20.9347 85.4101 20.998 85.4608 20.998C85.6381 20.9727 85.7268 20.922 85.7268 20.846V20.58C85.7521 20.504 85.8788 20.4027 86.1068 20.276C86.1574 20.3013 86.1954 20.4153 86.2208 20.618H86.4108L86.4868 20.542C86.6388 20.1873 86.7148 20.01 86.7148 20.01L86.6008 19.706C86.5248 19.5033 86.4868 19.402 86.4868 19.402L86.5248 19.212C86.5248 19.1867 86.5248 19.174 86.5248 19.174C86.5501 19.1487 86.5628 19.1233 86.5628 19.098C86.5374 19.022 86.5248 18.8447 86.5248 18.566C86.5501 18.262 86.5754 18.1227 86.6008 18.148C86.5501 17.9453 86.5121 17.768 86.4868 17.616C86.4614 17.4387 86.4488 17.2993 86.4488 17.198C86.4488 17.1727 86.5501 17.0587 86.7528 16.856C86.9301 16.704 87.0188 16.6153 87.0188 16.59L86.7528 16.286L86.8288 15.564L86.9808 15.26C86.9554 15.2347 86.8541 15.184 86.6768 15.108C86.5248 15.032 86.4488 14.9687 86.4488 14.918V14.88C86.3221 14.5507 86.2588 14.2973 86.2588 14.12L86.3728 13.588L86.4488 13.132L86.3348 12.904C86.3601 12.7267 86.3601 12.486 86.3348 12.182C86.2334 12.0807 86.1701 11.992 86.1448 11.916C86.1448 11.916 86.1701 11.8273 86.2208 11.65L86.2968 11.422C86.2714 11.3713 86.2461 11.3207 86.2208 11.27C86.1954 11.2193 86.1701 11.156 86.1448 11.08L86.2588 10.282L86.4488 10.206C86.5248 10.1553 86.5628 10.092 86.5628 10.016C86.4614 9.99067 86.3348 9.91467 86.1828 9.788C86.0561 9.61067 85.9928 9.47133 85.9928 9.37L86.1448 9.066C86.2208 8.86333 86.2588 8.762 86.2588 8.762C86.2081 8.73667 86.1321 8.648 86.0308 8.496L86.2208 7.964C86.1701 7.91333 86.1194 7.85 86.0688 7.774C86.0181 7.67267 85.9674 7.57133 85.9168 7.47C85.9168 7.41933 85.9674 7.34333 86.0688 7.242C86.0434 7.166 86.0308 7.03933 86.0308 6.862C86.0308 6.862 86.0561 6.81133 86.1068 6.71C86.1574 6.65933 86.1828 6.60867 86.1828 6.558L85.9928 6.292L85.9548 5.646C85.9548 5.59533 85.9168 5.532 85.8408 5.456C85.7901 5.43067 85.7268 5.39267 85.6508 5.342C85.6001 5.29133 85.5241 5.24067 85.4228 5.19L85.1948 4.772C85.2201 4.79733 84.9414 4.82267 84.3588 4.848H84.3208C84.2448 4.848 84.0674 4.74667 83.7888 4.544C83.4341 4.34133 83.1934 4.22733 83.0668 4.202C82.9908 4.202 82.9148 4.278 82.8388 4.43C82.7881 4.582 82.7754 4.67067 82.8008 4.696C82.8008 4.772 82.8894 4.89867 83.0668 5.076L83.3328 5.342L83.2188 5.836L83.0668 6.14C83.0668 6.16533 83.0668 6.20333 83.0668 6.254C83.0668 6.30467 83.0541 6.35533 83.0288 6.406C83.0034 6.43133 82.9781 6.45667 82.9528 6.482C82.9274 6.50733 82.9021 6.53267 82.8768 6.558C82.8768 6.58333 82.8641 6.634 82.8388 6.71C82.8388 6.76067 82.8261 6.83667 82.8008 6.938L82.7248 7.204C82.7248 7.25467 82.7628 7.318 82.8388 7.394C82.9148 7.47 82.9528 7.53333 82.9528 7.584L82.9148 8.04C82.9401 8.09067 82.9654 8.16667 82.9908 8.268C83.0414 8.36933 83.0794 8.48333 83.1048 8.61V8.724C83.1048 8.74933 83.1048 8.8 83.1048 8.876C83.1048 8.952 83.0921 9.04067 83.0668 9.142C83.0414 9.218 83.0541 9.28133 83.1048 9.332L83.1808 9.37C83.0794 9.42067 83.0541 9.50933 83.1048 9.636C83.1808 9.91467 83.2061 10.0793 83.1808 10.13L83.0668 10.434C83.0921 10.5353 83.1048 10.6493 83.1048 10.776C83.1048 10.8773 83.1174 11.004 83.1428 11.156C83.0668 11.232 82.9908 11.346 82.9148 11.498L83.2948 11.726C83.3454 11.802 83.3834 11.9287 83.4088 12.106C83.4088 12.2833 83.3581 12.4733 83.2568 12.676C83.1808 12.7013 83.1048 12.7773 83.0288 12.904C83.1301 12.9547 83.2188 13.0687 83.2948 13.246L83.1428 13.816C83.1681 13.8667 83.1934 13.93 83.2188 14.006C83.2441 14.082 83.2694 14.1707 83.2948 14.272L83.2568 14.386C83.2061 14.4367 83.1808 14.4747 83.1808 14.5C83.1554 14.6013 83.1301 14.728 83.1048 14.88C83.1048 15.0067 83.1048 15.1333 83.1048 15.26C83.1554 15.2853 83.1934 15.3613 83.2188 15.488C83.2188 15.564 83.2188 15.6653 83.2188 15.792C83.2441 15.8933 83.2694 16.0073 83.2948 16.134L83.5228 16.362C83.5734 16.4127 83.5988 16.514 83.5988 16.666L83.2568 16.818C83.1301 16.8687 83.0668 16.9827 83.0668 17.16C83.0668 17.16 83.2314 17.3247 83.5608 17.654C83.5861 17.6793 83.6114 17.692 83.6368 17.692H83.5988L83.5608 17.654C83.5354 17.654 83.4848 17.654 83.4088 17.654C83.5101 17.654 83.5608 17.73 83.5608 17.882C83.5354 17.9833 83.4974 18.0847 83.4468 18.186C83.4214 18.2873 83.3834 18.4013 83.3328 18.528C83.3328 18.528 83.3961 18.5913 83.5228 18.718C83.6241 18.8193 83.6748 18.8953 83.6748 18.946C83.6748 18.946 83.6368 19.0093 83.5608 19.136C83.4848 19.2373 83.4468 19.3133 83.4468 19.364C83.4468 19.364 83.5101 19.4653 83.6368 19.668C83.7634 19.8707 83.8268 19.9847 83.8268 20.01C83.8268 20.1113 83.7508 20.2 83.5988 20.276V20.428C83.5988 20.6813 83.6874 20.7953 83.8648 20.77L84.0168 20.732H84.0928C84.2701 20.732 84.4094 20.7827 84.5108 20.884C84.6121 20.9853 84.6881 21.036 84.7388 21.036ZM80.1028 4.582C80.1788 4.60733 80.2548 4.55666 80.3308 4.43C80.3054 4.40467 80.2674 4.392 80.2168 4.392C80.1408 4.392 80.1028 4.45533 80.1028 4.582ZM81.6608 4.962C81.7368 4.98733 81.8128 4.93667 81.8888 4.81C81.8128 4.75933 81.7494 4.75933 81.6988 4.81C81.6734 4.83533 81.6608 4.886 81.6608 4.962ZM80.9388 6.14C80.9641 6.14 81.0148 6.14 81.0908 6.14C81.1668 6.14 81.2681 6.12733 81.3948 6.102C81.5214 6.102 81.5848 6.05133 81.5848 5.95L81.5088 5.684H81.3568L80.9388 6.14ZM87.8928 6.786C87.9181 6.76067 87.9308 6.71 87.9308 6.634C87.8801 6.58333 87.8168 6.558 87.7408 6.558L87.7028 6.748L87.8928 6.786ZM87.7408 9.294L88.2348 8.952C88.1588 8.90133 88.1208 8.85067 88.1208 8.8C88.1208 8.62267 88.0574 8.48333 87.9308 8.382L87.7788 8.42C87.7534 8.44533 87.7534 8.52133 87.7788 8.648C87.7534 8.724 87.7154 8.81267 87.6648 8.914C87.6141 8.99 87.5634 9.09133 87.5128 9.218C87.6141 9.26867 87.6901 9.294 87.7408 9.294ZM79.9508 11.764C79.9761 11.6627 79.9634 11.536 79.9128 11.384L79.6468 11.498L79.9508 11.764ZM79.9888 12.79C80.1154 12.7393 80.2421 12.6507 80.3688 12.524C80.2674 12.4227 80.1788 12.372 80.1028 12.372V12.448C80.1028 12.4987 80.0648 12.5873 79.9888 12.714V12.79ZM89.1848 13.778L89.5648 13.664V13.512L89.3748 13.474L89.1848 13.778ZM89.9068 13.968C90.0081 13.9933 90.1094 13.9553 90.2108 13.854L89.9828 13.816C89.9321 13.8667 89.9068 13.9173 89.9068 13.968ZM89.2988 14.12V14.044H89.1848V14.12H89.2988ZM80.5968 15.83L80.6348 15.716L80.3688 15.678L80.5968 15.83ZM80.1788 16.818L80.3688 16.742L80.1788 16.704V16.818ZM87.5128 17.92C87.5634 17.92 87.5254 17.882 87.3988 17.806C87.3988 17.806 87.3734 17.8313 87.3228 17.882C87.3481 17.9073 87.4114 17.92 87.5128 17.92ZM81.5468 18.68C81.6734 18.68 81.8254 18.6167 82.0028 18.49V18.338C81.8761 18.186 81.7748 18.0847 81.6988 18.034L81.3568 18.528C81.3568 18.5787 81.3821 18.6293 81.4328 18.68H81.5468ZM88.5388 18.452L88.5008 18.262C88.4501 18.262 88.4121 18.2747 88.3868 18.3C88.3868 18.3 88.3994 18.3253 88.4248 18.376C88.4754 18.4267 88.5134 18.452 88.5388 18.452ZM87.5888 18.528C87.5888 18.4773 87.5634 18.4267 87.5128 18.376C87.4874 18.3253 87.4368 18.338 87.3608 18.414C87.4114 18.49 87.4874 18.528 87.5888 18.528ZM80.4068 18.756C80.5588 18.8573 80.6728 18.8067 80.7488 18.604C80.5968 18.6547 80.4828 18.7053 80.4068 18.756ZM80.4448 20.276C80.3688 20.1493 80.3308 20.0607 80.3308 20.01L80.1788 20.048L80.2168 20.2C80.2674 20.2507 80.3434 20.276 80.4448 20.276ZM80.5968 20.238L80.7868 20.2C80.8121 20.1747 80.7994 20.1113 80.7488 20.01L80.5968 20.086V20.238ZM88.3868 20.998C88.5134 20.7953 88.5641 20.6687 88.5388 20.618H88.3488L88.1968 20.884L88.3868 20.998ZM83.8268 21.796L83.7888 21.682H83.7128L83.7888 21.796H83.8268ZM83.5988 23.544C83.6748 23.4173 83.7381 23.354 83.7888 23.354C83.9154 23.354 84.0294 23.392 84.1308 23.468L84.2068 23.354L84.0168 22.974C83.9914 22.898 83.9408 22.86 83.8648 22.86C83.8141 22.86 83.7508 22.8853 83.6748 22.936C83.5988 22.9867 83.4974 23.1007 83.3708 23.278C83.3454 23.3033 83.3328 23.354 83.3328 23.43C83.3328 23.506 83.3581 23.544 83.4088 23.544H83.5988Z" fill="#FCC26B"/>
</svg>
